#!OML:ASF F:\VICON\USERDATA\INSTALL\rory3\rory3.ASF
:FULLY-SPECIFIED
:DEGREES
47
root -0.869417382499852 18.226099645731765 11.055529875696099 4.22842373288007 3.133946459964151 -1.0925522233911873
lfemur -38.01347101421279 -2.1016568750926874 -14.433727156184364
ltibia 67.40827939187605
lfoot 0.9736103863127905 -10.74657470296474
ltoes -13.748952635155966
rfemur -5.999888206553871 4.835358062231329 32.10165924862243
rtibia 47.93450009291558
rfoot 23.420441712344346 -8.109998260641063
rtoes -2.9649596712442183
lowerback 15.976530989592904 1.841031658973179 3.938708588028735
upperback -0.9210061394342826 3.872368152134113 0.726876707403641
thorax -8.9415024458221 1.6553461984800149 -2.558865429214767
lowerneck -19.55534355746343 -5.231900058761131 -1.7586979947772654
upperneck 14.101622043553887 -6.053577134791831 4.146995088481061
head 7.279164880032482 -2.5087049006136284 0.9813023983122036
lclavicle 1.1102367205560596e-16 1.6567220478339432e-15
lhumerus -65.38074655288992 0.35216660725077187 85.33174477773274
lradius 84.8478467065578
lwrist 34.47727437055487
lhand -28.209866285012332 5.301058303077891
lfingers 7.125019999999998
lthumb -1.7325745755944104 34.87024367609351
rclavicle 1.140263362884951e-16 1.6699965370206234e-15
rhumerus -29.7254256842774 18.592696535230786 -96.04952225587026
rradius 121.20874845197005
rwrist -21.09174318480929
rhand -18.670309478980318 41.70156962483509
rfingers 7.125019999999998
rthumb 7.50405117426463 11.887813933604521
48
root -0.8382142293781135 18.14207466708662 11.258627360689815 4.337451190731646 3.067157922775808 -1.1142882328863948
lfemur -37.022434382611245 -1.3493876937390707 -15.537276313735493
ltibia 57.76477265923442
lfoot 0.3604218483986874 -10.160196178099834
ltoes -13.102567588156187
rfemur -4.135242763276459 4.357626738155587 32.22817885787669
rtibia 45.62470239406572
rfoot 22.40586969811206 -8.779832000555675
rtoes 2.6039901102285414
lowerback 15.877843850694196 1.864568821001987 3.645586567156286
upperback -0.9369142085349981 3.7209885700238936 0.4697679871289441
thorax -8.934547323513396 1.7067801349962861 -2.548741814455372
lowerneck -19.667919794883712 -5.19434537501978 -1.7555823446577443
upperneck 13.947978039901363 -6.56546098661239 4.464605296178306
head 7.258223028999509 -2.705370946426896 0.9860419893672596
lclavicle 1.1102663265154794e-16 1.6567219493268668e-15
lhumerus -66.51768067361958 0.0935886430602908 85.20177358329317
lradius 86.68060642235403
lwrist 34.51576739726098
lhand -28.30568174992175 4.511378308055684
lfingers 7.125019999999998
lthumb -1.7604497211857972 34.2258694619713
rclavicle 1.140257052148636e-16 1.6699961098315968e-15
rhumerus -35.235584970030914 17.054765969160304 -95.68605651075084
rradius 119.63154480411178
rwrist -20.95977589277398
rhand -18.670859098843923 41.78915532727577
rfingers 7.125019999999998
rthumb 7.505028579040406 11.877361311703101
49
root -0.804784380172315 18.040812713691835 11.565182444331555 4.426499332535893 2.8898970147868273 -1.0654668089453554
lfemur -36.70020859941737 -0.08871758532155427 -17.232520914535993
ltibia 52.031365949653704
lfoot 0.4177874719101413 -10.327543207988302
ltoes -12.617641319781592
rfemur -2.0066849149106876 4.046922880875439 32.16051479801308
rtibia 45.28256017827038
rfoot 20.87641650740464 -9.477618945722645
rtoes 8.079153788278218
lowerback 15.851094291857805 1.8525234755447855 3.2024113669298435
upperback -0.9035459004739511 3.526738381962679 0.2435591753639429
thorax -8.942834835569615 1.7193456650224144 -2.4803036407865044
lowerneck -19.721011540285 -5.142101606731836 -1.7547989734626994
upperneck 13.718952720665119 -7.03928238429154 4.769366136399889
head 7.25253588336292 -2.8784993662619547 0.9950270014371863
lclavicle 1.1102508241570156e-16 1.6567222131147088e-15
lhumerus -66.4910417555704 -0.18668896722008999 85.34177954504307
lradius 89.00045752505667
lwrist 34.53328623045745
lhand -28.396559981669633 3.8241903190362696
lfingers 7.125019999999998
lthumb -1.7542361944279454 33.78321390938665
rclavicle 1.1402485837566602e-16 1.669995602047525e-15
rhumerus -39.95287371710931 15.95867767799765 -95.50097135404712
rradius 117.47882507532742
rwrist -21.007562558712973
rhand -18.690417896589253 41.79932851208395
rfingers 7.125019999999998
rthumb 7.508624182317816 11.866112972925656
50
root -0.7711610938854978 17.929249345717324 11.969910383908433 4.455976024032456 2.7617047653252156 -0.804203827407454
lfemur -35.58492232275956 0.7008848719335046 -19.0749189288646
ltibia 51.04966362204803
lfoot 0.39386532223624293 -11.146585256203014
ltoes -12.461618382421477
rfemur -1.8696492807795515 3.310094440798873 31.437752985095912
rtibia 47.4510009579181
rfoot 18.64291686168379 -10.182583008479355
rtoes 9.820706803607456
lowerback 15.906282252291975 1.8092474393021147 2.672746321213951
upperback -0.8080438065383785 3.284725775403567 0.06091307701371207
thorax -8.979324458725628 1.6989214259576009 -2.365411006503114
lowerneck -19.706111556441787 -5.119654696886328 -1.762226425898408
upperneck 13.4780960359271 -7.341134338557522 4.950254311435035
head 7.256064309896954 -3.0240701752586068 1.0221521373074995
lclavicle 1.1102549121062255e-16 1.656724508177845e-15
lhumerus -65.74526419174045 -0.618227771502279 85.71667772546924
lradius 91.80423294430861
lwrist 34.473302406758265
lhand -28.481668129758482 3.2848053261957264
lfingers 7.125019999999998
lthumb -1.7299548060731897 33.52204856268382
rclavicle 1.1402616844204547e-16 1.6699964744793932e-15
rhumerus -42.29057798918357 15.211664456976468 -95.45808736602228
rradius 114.9304804916706
rwrist -21.139671579098348
rhand -18.69407120122246 41.78816554423723
rfingers 7.125019999999998
rthumb 7.511160657479366 11.837417149661771
